# xmcd
#
# Track frame offsets: 
#        150
#        28624
#        58136
#        111757
#        143722
#        175048
#        205791
#        219746
#        259445
#        314309
#
# Disc length: 4727 seconds
#
# Revision: 0
# Processed by: cddbd v1.5.2PL0 Copyright (c) Steve Scherf et al.
# Submitted via: ExactAudioCopy v1.3
#
DISCID=9412750a
DTITLE=Warren Haynes Band - Live at the Moody Theater
DYEAR=2011
DGENRE=Blues
TTITLE0=Frozen Fear
TTITLE1=Dreaming the Same Dream
TTITLE2=Pretzel Logic
TTITLE3=Fire in the Kitchen
TTITLE4=A Change is Gonna Come
TTITLE5=Spanish Castle Magic
TTITLE6=WHB Intro
TTITLE7=Tear me Down
TTITLE8=Your Wildest Dreams
TTITLE9=Soulshine
EXTD=
EXTT0=
EXTT1=
EXTT2=
EXTT3=
EXTT4=
EXTT5=
EXTT6=
EXTT7=
EXTT8=
EXTT9=
PLAYORDER=
